<svg width="115" height="28" viewBox="0 0 115 28" fill="none" xmlns="http://www.w3.org/2000/svg">
<path d="M5.26344 19.904L0.391438 14.6L5.26344 9.296H10.4234L5.52744 14.6L10.4234 19.904H5.26344ZM102.773 0.199999L96.3406 27.488H92.3806L98.8126 0.199999H102.773ZM104.528 9.296H109.688L114.56 14.6L109.688 19.904H104.528L109.424 14.6L104.528 9.296Z" fill="#1DB954"/>
<path d="M13.4182 19.88V16.568L21.0022 5.72H25.5862V16.328H27.5542V19.88H25.5862V23H21.4822V19.88H13.4182ZM21.7702 10.232L17.7382 16.328H21.7702V10.232ZM34.0764 19.832H39.4524V23H29.9724V6.152H34.0764V19.832ZM54.0339 16.088C54.0339 16.472 54.0099 16.872 53.9619 17.288H44.6739C44.7379 18.12 45.0019 18.76 45.4659 19.208C45.9459 19.64 46.5299 19.856 47.2179 19.856C48.2419 19.856 48.9539 19.424 49.3539 18.56H53.7219C53.4979 19.44 53.0899 20.232 52.4979 20.936C51.9219 21.64 51.1939 22.192 50.3139 22.592C49.4339 22.992 48.4499 23.192 47.3619 23.192C46.0499 23.192 44.8819 22.912 43.8579 22.352C42.8339 21.792 42.0339 20.992 41.4579 19.952C40.8819 18.912 40.5939 17.696 40.5939 16.304C40.5939 14.912 40.8739 13.696 41.4339 12.656C42.0099 11.616 42.8099 10.816 43.8339 10.256C44.8579 9.696 46.0339 9.416 47.3619 9.416C48.6579 9.416 49.8099 9.688 50.8179 10.232C51.8259 10.776 52.6099 11.552 53.1699 12.56C53.7459 13.568 54.0339 14.744 54.0339 16.088ZM49.8339 15.008C49.8339 14.304 49.5939 13.744 49.1139 13.328C48.6339 12.912 48.0339 12.704 47.3139 12.704C46.6259 12.704 46.0419 12.904 45.5619 13.304C45.0979 13.704 44.8099 14.272 44.6979 15.008H49.8339ZM69.4229 9.608V23H65.3189V21.176C64.9029 21.768 64.3349 22.248 63.6149 22.616C62.9109 22.968 62.1269 23.144 61.2629 23.144C60.2389 23.144 59.3349 22.92 58.5509 22.472C57.7669 22.008 57.1589 21.344 56.7269 20.48C56.2949 19.616 56.0789 18.6 56.0789 17.432V9.608H60.1589V16.88C60.1589 17.776 60.3909 18.472 60.8549 18.968C61.3189 19.464 61.9429 19.712 62.7269 19.712C63.5269 19.712 64.1589 19.464 64.6229 18.968C65.0869 18.472 65.3189 17.776 65.3189 16.88V9.608H69.4229ZM85.5948 9.608V23H81.4908V21.176C81.0748 21.768 80.5068 22.248 79.7868 22.616C79.0828 22.968 78.2988 23.144 77.4348 23.144C76.4108 23.144 75.5068 22.92 74.7228 22.472C73.9388 22.008 73.3308 21.344 72.8988 20.48C72.4668 19.616 72.2508 18.6 72.2508 17.432V9.608H76.3308V16.88C76.3308 17.776 76.5628 18.472 77.0268 18.968C77.4908 19.464 78.1148 19.712 78.8988 19.712C79.6988 19.712 80.3308 19.464 80.7948 18.968C81.2588 18.472 81.4908 17.776 81.4908 16.88V9.608H85.5948Z" fill="white"/>
</svg>
